<svg width="158" height="158" viewBox="0 0 158 158" fill="none" xmlns="http://www.w3.org/2000/svg">
<g id="logo 1">
<g id="base">
<path id="base_circle copy 2" d="M79 138.71C46.548 138.71 20.29 112.49 20.29 80C20.29 47.548 46.548 21.29 79 21.29C111.49 21.29 137.71 47.548 137.71 80C137.71 112.49 111.49 138.71 79 138.71Z" fill="url(#paint0_linear_278_2527)"/>
<g id="shape">
<g id="light">
<path id="Shape 3" d="M50.918 58.34L5.888 62.672L29.41 38.352L51.678 49.638" fill="url(#paint1_radial_278_2527)"/>
<path id="Shape 4" d="M60.912 49.372L122.662 25.28L133.416 57.96L59.886 58.606" fill="url(#paint2_radial_278_2527)"/>
</g>
<g id="lighthouse">
<path id="Shape 2" d="M48.22 62.976V47.548C48.22 47.548 51.488 42.95 55.934 42.95C60.342 42.95 63.61 47.548 63.61 47.548V62.976H48.22Z" fill="url(#paint3_radial_278_2527)" stroke="black" stroke-width="2"/>
<path id="Shape 1" d="M48.22 133.618V58.34C48.22 58.34 52.97 55.262 55.934 55.262C58.898 55.262 63.61 58.34 63.61 58.34L73.68 138.862L48.22 133.618Z" fill="#0529D3" stroke="black" stroke-width="2"/>
</g>
<g id="stripes">
<g id="Layer 1">
<path d="M48.22 116.898C55.022 111.996 66.84 108.462 70.108 109.64C70.184 110.438 70.26 110.096 70.716 115.568C60.152 113.63 48.22 123.054 48.22 123.054" fill="#FF9100"/>
<path d="M48.22 116.898C55.022 111.996 66.84 108.462 70.108 109.64C70.184 110.438 70.26 110.096 70.716 115.568C60.152 113.63 48.22 123.054 48.22 123.054" stroke="black" stroke-width="1.5"/>
</g>
<g id="Layer 1 copy">
<path d="M48.22 98.658C55.022 93.756 64.636 90.412 67.904 91.59C67.98 92.388 67.904 89.652 68.398 95.124C57.036 94.934 48.296 103.522 48.296 103.522" fill="#FF9100"/>
<path d="M48.22 98.658C55.022 93.756 64.636 90.412 67.904 91.59C67.98 92.388 67.904 89.652 68.398 95.124C57.036 94.934 48.296 103.522 48.296 103.522" stroke="black" stroke-width="1.2"/>
</g>
<g id="Layer 1 copy 2">
<path d="M48.22 80.038C55.022 75.136 61.976 72.894 65.624 73.16C65.7 73.958 65.662 72.324 66.156 77.568C55.364 77.834 48.22 85.51 48.22 85.51" fill="#FF9100"/>
<path d="M48.22 80.038C55.022 75.136 61.976 72.894 65.624 73.16C65.7 73.958 65.662 72.324 66.156 77.568C55.364 77.834 48.22 85.51 48.22 85.51" stroke="black"/>
</g>
<g id="Layer 1 copy 3">
<path d="M48.296 67.042C55.098 62.14 58.822 62.102 64.18 61.38C64.256 62.178 63.496 59.024 64.446 64.496C52.248 64.61 48.22 71.374 48.22 71.374" fill="#FF9100"/>
<path d="M48.296 67.042C55.098 62.14 58.822 62.102 64.18 61.38C64.256 62.178 63.496 59.024 64.446 64.496C52.248 64.61 48.22 71.374 48.22 71.374" stroke="black"/>
</g>
</g>
</g>
<path id="base_circle" fill-rule="evenodd" clip-rule="evenodd" d="M79 156C36.972 156 3 122.028 3 80C3 37.972 36.972 4 79 4C121.028 4 155 37.972 155 80C155 122.028 121.028 156 79 156ZM136 80C136 48.46 110.502 23 79 23C47.46 23 22 48.46 22 80C22 111.502 47.46 137 79 137C110.502 137 136 111.502 136 80Z" fill="url(#paint4_linear_278_2527)" stroke="black"/>
</g>
<g id="side design">
<path id="Vector" d="M145.462 82.762C143.334 82.762 141.662 81.052 141.662 78.962C141.662 76.834 143.334 75.162 145.462 75.162C147.552 75.162 149.262 76.834 149.262 78.962C149.262 81.052 147.552 82.762 145.462 82.762Z" fill="white" stroke="black"/>
<path id="Shape 1 copy" d="M12.462 82.762C10.334 82.762 8.66199 81.052 8.66199 78.962C8.66199 76.834 10.334 75.162 12.462 75.162C14.552 75.162 16.262 76.834 16.262 78.962C16.262 81.052 14.552 82.762 12.462 82.762Z" fill="white" stroke="black"/>
</g>
<g id="text_path">
<path id="JAYA EDUCATIONAL TRUST" fill-rule="evenodd" clip-rule="evenodd" d="M19.986 56.238L14.4 53.996L15.046 52.4L20.594 54.642C21.3794 54.946 21.8734 55.3893 22.076 55.972C22.304 56.5293 22.2407 57.2387 21.886 58.1L21.772 58.404L20.556 57.91L20.67 57.682C20.7967 57.3527 20.7967 57.0613 20.67 56.808C20.5687 56.58 20.3407 56.39 19.986 56.238V56.238ZM24.166 48.676L22.874 48.524L21.696 50.918L22.57 51.83L21.772 53.388L16.984 48.182L17.896 46.358L24.926 47.156L24.166 48.676ZM18.846 47.954L20.784 49.968L21.62 48.334L18.846 47.954ZM24.014 43.546H19.416L20.442 41.988H23.254L22.114 39.442L23.14 37.884L24.964 42.102L27.32 43.622L26.37 45.066L24.014 43.546ZM31.88 37.428L30.664 36.972L28.954 39.024L29.6 40.126L28.498 41.456L25.002 35.3L26.294 33.742L32.982 36.098L31.88 37.428ZM26.826 35.528L28.27 37.922L29.448 36.516L26.826 35.528ZM37.01 32.26L32.754 27.168L36.288 24.204L37.124 25.192L34.882 27.054L35.68 28.004L37.77 26.256L38.606 27.244L36.516 28.992L37.504 30.17L39.784 28.232L40.62 29.22L37.01 32.26ZM42.596 27.776L39.024 22.19L40.544 21.202C41.38 20.67 42.0514 20.328 42.558 20.176C43.0394 20.024 43.5207 19.9987 44.002 20.1C44.4327 20.176 44.8254 20.3407 45.18 20.594C45.5094 20.8473 45.8007 21.1767 46.054 21.582C46.3327 22.0127 46.5227 22.4307 46.624 22.836C46.7 23.2667 46.6874 23.6847 46.586 24.09C46.4594 24.5713 46.2314 25.0147 45.902 25.42C45.5474 25.8 44.952 26.256 44.116 26.788L42.596 27.776ZM41.684 22.038L41.152 22.38L43.356 25.762L43.85 25.458C44.458 25.078 44.8254 24.6347 44.952 24.128C45.0534 23.6467 44.9267 23.1273 44.572 22.57C44.2174 22.0127 43.7994 21.6833 43.318 21.582C42.8114 21.506 42.2667 21.658 41.684 22.038ZM48.79 20.936L47.08 17.326L48.638 16.604L50.348 20.214C50.576 20.6953 50.8167 21.012 51.07 21.164C51.3234 21.2907 51.64 21.278 52.02 21.126C52.4 20.9487 52.6154 20.708 52.666 20.404C52.742 20.1253 52.666 19.7327 52.438 19.226L50.728 15.616L52.286 14.894L53.958 18.504C54.3634 19.3653 54.452 20.1 54.224 20.708C53.996 21.3413 53.4387 21.8607 52.552 22.266C51.6654 22.6713 50.918 22.76 50.31 22.532C49.6767 22.304 49.17 21.772 48.79 20.936V20.936ZM62.166 16.718L62.546 18.048C62.2927 18.3013 62.0267 18.5167 61.748 18.694C61.444 18.8713 61.1147 19.0107 60.76 19.112C59.696 19.4413 58.7587 19.416 57.948 19.036C57.1627 18.6307 56.6054 17.9213 56.276 16.908C55.9467 15.8947 56.01 14.9953 56.466 14.21C56.8967 13.4247 57.6314 12.8673 58.67 12.538C59.0247 12.4367 59.3794 12.3733 59.734 12.348C60.0887 12.3227 60.4434 12.3353 60.798 12.386L61.216 13.716C60.836 13.6147 60.4814 13.5513 60.152 13.526C59.8227 13.526 59.4934 13.5767 59.164 13.678C58.5814 13.8807 58.1887 14.21 57.986 14.666C57.758 15.1473 57.758 15.7173 57.986 16.376C58.1887 17.0347 58.518 17.5033 58.974 17.782C59.4047 18.0353 59.9114 18.0733 60.494 17.896C60.8234 17.7947 61.1274 17.6553 61.406 17.478C61.6594 17.2753 61.9127 17.022 62.166 16.718V16.718ZM69.272 17.022L68.626 15.92L66.004 16.414L65.814 17.668L64.104 18.01L65.282 11.018L67.296 10.638L70.982 16.718L69.272 17.022ZM66.574 12.348L66.156 15.122L67.98 14.78L66.574 12.348ZM70.944 11.36L70.83 10.068L76.948 9.612L77.024 10.904L74.858 11.094L75.238 16.414L73.528 16.528L73.148 11.208L70.944 11.36ZM78.962 16.3L79.076 9.65L80.786 9.688L80.672 16.338L78.962 16.3ZM86.98 9.992C88.044 10.1187 88.842 10.524 89.374 11.208C89.906 11.8667 90.1087 12.7407 89.982 13.83C89.8554 14.894 89.4627 15.692 88.804 16.224C88.12 16.756 87.246 16.9713 86.182 16.87C85.1434 16.7433 84.3454 16.338 83.788 15.654C83.256 14.97 83.0534 14.096 83.18 13.032C83.3067 11.968 83.712 11.17 84.396 10.638C85.0547 10.0807 85.916 9.86533 86.98 9.992ZM86.828 11.246C86.3214 11.17 85.9034 11.3093 85.574 11.664C85.2447 12.0187 85.042 12.538 84.966 13.222C84.8647 13.9313 84.9407 14.4887 85.194 14.894C85.4474 15.3247 85.8274 15.5653 86.334 15.616C86.866 15.6667 87.2967 15.5273 87.626 15.198C87.9554 14.8433 88.158 14.3113 88.234 13.602C88.31 12.918 88.234 12.3607 88.006 11.93C87.7527 11.5247 87.36 11.2967 86.828 11.246V11.246ZM91.92 17.592L93.592 11.17L95.454 11.626L96.632 16.642L97.772 12.234L99.368 12.652L97.696 19.074L95.834 18.618L94.656 13.564L93.478 18.01L91.92 17.592ZM104.384 21.658L104.422 20.366L101.952 19.34L101.116 20.328L99.52 19.644L104.308 14.438L106.208 15.198L105.942 22.304L104.384 21.658ZM104.954 16.262L103.092 18.39L104.764 19.074L104.954 16.262ZM107.614 23.14L110.844 17.326L112.326 18.162L109.742 22.836L112.364 24.318L111.718 25.42L107.614 23.14ZM119.28 24.052L120.078 23.026L124.866 26.864L124.03 27.89L122.32 26.484L118.976 30.664L117.646 29.6L120.99 25.42L119.28 24.052ZM125.322 33.096L124.98 32.716L123.156 34.502L121.978 33.248L126.728 28.612L128.552 30.474C129.16 31.1073 129.502 31.6773 129.578 32.184C129.654 32.6653 129.464 33.134 129.008 33.59C128.704 33.894 128.375 34.0713 128.02 34.122C127.665 34.1727 127.298 34.084 126.918 33.856C127.045 34.0587 127.095 34.2993 127.07 34.578C127.07 34.8313 127.007 35.1607 126.88 35.566L126.158 37.542L124.904 36.25L125.512 34.502C125.639 34.1727 125.689 33.894 125.664 33.666C125.613 33.4633 125.499 33.2733 125.322 33.096V33.096ZM125.816 31.918L126.31 32.412C126.563 32.6653 126.791 32.8047 126.994 32.83C127.197 32.8553 127.412 32.754 127.64 32.526C127.868 32.3233 127.969 32.1207 127.944 31.918C127.919 31.7153 127.779 31.4873 127.526 31.234L127.032 30.702L125.816 31.918ZM129.882 37.58L133.074 35.186L134.1 36.592L130.908 38.948C130.477 39.2773 130.211 39.594 130.11 39.898C130.034 40.1767 130.123 40.4807 130.376 40.81C130.629 41.1393 130.895 41.304 131.174 41.304C131.478 41.304 131.845 41.1393 132.276 40.81L135.468 38.416L136.494 39.784L133.302 42.178C132.567 42.7353 131.871 42.9633 131.212 42.862C130.553 42.7607 129.933 42.33 129.35 41.57C128.767 40.7847 128.527 40.0627 128.628 39.404C128.704 38.7707 129.122 38.1627 129.882 37.58ZM140.256 46.852L139.04 47.574C138.989 47.1687 138.913 46.7887 138.812 46.434C138.736 46.1047 138.622 45.8007 138.47 45.522C138.267 45.1673 138.065 44.9393 137.862 44.838C137.659 44.7113 137.457 44.7113 137.254 44.838C137.102 44.914 137.013 45.0407 136.988 45.218C136.963 45.37 137.013 45.6233 137.14 45.978L137.368 46.662C137.596 47.3713 137.659 47.9413 137.558 48.372C137.431 48.8027 137.127 49.1573 136.646 49.436C136.013 49.7907 135.43 49.8667 134.898 49.664C134.366 49.4613 133.885 48.9673 133.454 48.182C133.251 47.8273 133.074 47.4473 132.922 47.042C132.795 46.6113 132.694 46.1807 132.618 45.75L133.872 45.028C133.897 45.5093 133.948 45.9527 134.024 46.358C134.125 46.7633 134.265 47.118 134.442 47.422C134.645 47.7513 134.847 47.9793 135.05 48.106C135.253 48.2073 135.455 48.1947 135.658 48.068C135.835 47.9667 135.937 47.8273 135.962 47.65C135.987 47.498 135.949 47.2193 135.848 46.814L135.62 46.168C135.417 45.5093 135.379 44.9773 135.506 44.572C135.633 44.1413 135.924 43.7993 136.38 43.546C136.963 43.2167 137.507 43.1533 138.014 43.356C138.546 43.5333 139.002 43.9767 139.382 44.686C139.585 45.0153 139.749 45.3573 139.876 45.712C140.028 46.0667 140.155 46.4467 140.256 46.852V46.852ZM140.522 49.702L141.7 49.208L144.094 54.87L142.878 55.364L142.042 53.35L137.102 55.402L136.418 53.844L141.358 51.754L140.522 49.702Z" fill="white"/>
<path id="JAYA ENGINEERING COLLEGE" fill-rule="evenodd" clip-rule="evenodd" d="M11.702 93.288L17.554 91.958L17.934 93.63L12.082 94.96C11.2714 95.1373 10.6127 95.0487 10.106 94.694C9.6247 94.3393 9.28269 93.7187 9.08003 92.832L9.00403 92.49L10.258 92.224L10.334 92.49C10.41 92.8193 10.562 93.06 10.79 93.212C11.018 93.3387 11.322 93.364 11.702 93.288ZM13.64 102.598L14.666 101.838L13.83 99.292L12.576 99.254L12.044 97.62L19.112 97.924L19.758 99.862L14.172 104.232L13.64 102.598ZM17.934 99.368L15.16 99.33L15.692 101.04L17.934 99.368ZM18.238 106.398L20.67 102.484L21.468 104.194L19.91 106.55L22.722 106.93L23.482 108.64L18.922 107.956L16.376 109.096L15.692 107.538L18.238 106.398ZM20.708 116.848L21.506 115.86L20.1 113.58L18.846 113.846L17.972 112.364L24.926 110.996L25.99 112.744L21.582 118.33L20.708 116.848ZM24.166 112.668L21.43 113.276L22.38 114.834L24.166 112.668ZM26.218 124.182L31.12 119.698L34.236 123.118L33.286 123.992L31.31 121.864L30.398 122.7L32.26 124.714L31.272 125.588L29.448 123.574L28.308 124.6L30.36 126.804L29.372 127.678L26.218 124.182ZM32.108 130.3L36.402 125.208L37.846 126.462L36.744 131.516L39.708 128.02L40.924 129.046L36.668 134.138L35.186 132.922L36.288 127.868L33.324 131.364L32.108 130.3ZM46.89 136.494L45.218 139.192C44.7367 139.141 44.268 139.04 43.812 138.888C43.3814 138.736 42.9507 138.533 42.52 138.28C41.5827 137.672 41.0127 136.937 40.81 136.076C40.582 135.215 40.7467 134.328 41.304 133.416C41.8867 132.529 42.6214 131.997 43.508 131.82C44.3947 131.643 45.3194 131.858 46.282 132.466C46.662 132.694 46.9914 132.96 47.27 133.264C47.574 133.543 47.84 133.847 48.068 134.176L47.346 135.354C47.1434 134.974 46.9154 134.645 46.662 134.366C46.4087 134.062 46.1174 133.821 45.788 133.644C45.2054 133.264 44.6607 133.137 44.154 133.264C43.6474 133.391 43.204 133.758 42.824 134.366C42.444 134.974 42.3047 135.531 42.406 136.038C42.5074 136.545 42.8367 136.975 43.394 137.33C43.546 137.431 43.6854 137.507 43.812 137.558C43.964 137.634 44.1034 137.685 44.23 137.71L44.914 136.608L44.04 136.038L44.648 135.088L46.89 136.494ZM47.878 141.092L50.766 135.126L52.324 135.886L49.398 141.852L47.878 141.092ZM52.666 143.372L54.946 137.102L56.732 137.748L57.454 142.878L59.012 138.584L60.532 139.154L58.29 145.386L56.466 144.74L55.744 139.61L54.186 143.904L52.666 143.372ZM61.938 146.412L63.382 139.914L67.904 140.94L67.638 142.194L64.788 141.548L64.522 142.764L67.182 143.372L66.916 144.626L64.256 144.056L63.914 145.538L66.84 146.184L66.574 147.438L61.938 146.412ZM69.842 147.97L70.488 141.358L75.086 141.814L74.972 143.106L72.084 142.802L71.932 144.056L74.668 144.322L74.554 145.614L71.818 145.348L71.666 146.868L74.668 147.134L74.554 148.426L69.842 147.97ZM80.52 145.994L80.026 146.032L80.102 148.54L78.392 148.578L78.202 141.928L80.824 141.852C81.7107 141.827 82.3567 141.966 82.762 142.27C83.1674 142.549 83.3827 143.005 83.408 143.638C83.408 144.069 83.3067 144.436 83.104 144.74C82.9014 145.019 82.5974 145.234 82.192 145.386C82.42 145.437 82.6227 145.551 82.8 145.728C83.0027 145.905 83.2054 146.184 83.408 146.564L84.396 148.426L82.572 148.464L81.698 146.83C81.5207 146.501 81.356 146.285 81.204 146.184C81.0267 146.057 80.7987 145.994 80.52 145.994V145.994ZM79.76 144.854L80.482 144.816C80.8367 144.816 81.09 144.74 81.242 144.588C81.394 144.461 81.47 144.246 81.47 143.942C81.4447 143.638 81.356 143.423 81.204 143.296C81.052 143.169 80.7987 143.106 80.444 143.106L79.722 143.144L79.76 144.854ZM86.98 148.084L86.144 141.472L87.854 141.282L88.69 147.856L86.98 148.084ZM92.148 147.362L90.628 140.902L92.49 140.446L95.91 144.322L94.846 139.876L96.442 139.496L97.962 145.994L96.1 146.412L92.718 142.536L93.744 146.982L92.148 147.362ZM105.904 139.192L107.082 142.156C106.753 142.511 106.398 142.815 106.018 143.068C105.638 143.347 105.22 143.575 104.764 143.752C103.725 144.157 102.788 144.183 101.952 143.828C101.116 143.499 100.508 142.84 100.128 141.852C99.748 140.864 99.748 139.965 100.128 139.154C100.508 138.343 101.23 137.723 102.294 137.292C102.725 137.14 103.143 137.026 103.548 136.95C103.953 136.874 104.346 136.849 104.726 136.874L105.258 138.166C104.827 138.09 104.422 138.077 104.042 138.128C103.662 138.153 103.307 138.229 102.978 138.356C102.319 138.609 101.889 138.989 101.686 139.496C101.483 139.977 101.521 140.547 101.8 141.206C102.053 141.865 102.408 142.308 102.864 142.536C103.345 142.764 103.89 142.751 104.498 142.498C104.675 142.447 104.827 142.384 104.954 142.308C105.081 142.232 105.195 142.143 105.296 142.042L104.84 140.864L103.852 141.244L103.434 140.142L105.904 139.192ZM118.292 134.48L119.052 135.62C118.875 135.949 118.672 136.241 118.444 136.494C118.191 136.747 117.912 136.975 117.608 137.178C116.671 137.761 115.759 137.976 114.872 137.824C114.011 137.647 113.289 137.115 112.706 136.228C112.123 135.341 111.933 134.455 112.136 133.568C112.339 132.707 112.909 131.972 113.846 131.364C114.15 131.161 114.479 131.009 114.834 130.908C115.163 130.781 115.505 130.705 115.86 130.68L116.582 131.82C116.202 131.82 115.86 131.858 115.556 131.934C115.227 132.01 114.923 132.149 114.644 132.352C114.137 132.681 113.833 133.099 113.732 133.606C113.656 134.138 113.808 134.695 114.188 135.278C114.568 135.835 115.011 136.19 115.518 136.342C116.025 136.469 116.531 136.367 117.038 136.038C117.317 135.861 117.557 135.645 117.76 135.392C117.963 135.139 118.14 134.835 118.292 134.48V134.48ZM120.078 126.652C120.889 125.968 121.725 125.651 122.586 125.702C123.447 125.778 124.22 126.221 124.904 127.032C125.613 127.843 125.943 128.679 125.892 129.54C125.816 130.401 125.373 131.187 124.562 131.896C123.751 132.58 122.915 132.884 122.054 132.808C121.193 132.757 120.42 132.327 119.736 131.516C119.027 130.68 118.697 129.831 118.748 128.97C118.824 128.109 119.267 127.336 120.078 126.652ZM120.876 127.602C120.496 127.931 120.319 128.337 120.344 128.818C120.369 129.299 120.61 129.806 121.066 130.338C121.522 130.87 121.991 131.187 122.472 131.288C122.928 131.389 123.359 131.275 123.764 130.946C124.169 130.591 124.347 130.173 124.296 129.692C124.271 129.211 124.03 128.717 123.574 128.21C123.118 127.678 122.649 127.349 122.168 127.222C121.712 127.121 121.281 127.247 120.876 127.602ZM129.464 127.07L124.524 122.624L125.664 121.37L129.654 124.942L131.668 122.7L132.618 123.574L129.464 127.07ZM134.48 121.256L129.084 117.342L130.072 115.974L134.404 119.09L136.19 116.658L137.216 117.418L134.48 121.256ZM138.85 114.834L133.036 111.604L135.278 107.538L136.418 108.184L135.012 110.73L136.076 111.338L137.406 108.944L138.546 109.552L137.216 111.946L138.546 112.706L140.028 110.084L141.13 110.692L138.85 114.834ZM141.548 100.47L144.512 101.648C144.563 102.129 144.55 102.598 144.474 103.054C144.398 103.535 144.271 104.004 144.094 104.46C143.689 105.473 143.068 106.17 142.232 106.55C141.421 106.93 140.522 106.917 139.534 106.512C138.546 106.132 137.887 105.524 137.558 104.688C137.229 103.827 137.279 102.864 137.71 101.8C137.862 101.395 138.052 101.027 138.28 100.698C138.508 100.343 138.761 100.027 139.04 99.748L140.332 100.242C140.003 100.521 139.724 100.812 139.496 101.116C139.268 101.42 139.078 101.737 138.926 102.066C138.673 102.699 138.66 103.269 138.888 103.776C139.116 104.257 139.559 104.625 140.218 104.878C140.851 105.131 141.421 105.169 141.928 104.992C142.409 104.789 142.764 104.384 142.992 103.776C143.068 103.624 143.119 103.472 143.144 103.32C143.195 103.168 143.22 103.029 143.22 102.902L142.004 102.408L141.624 103.396L140.56 102.94L141.548 100.47ZM146.07 98.304L139.61 96.708L140.75 92.224L142.004 92.528L141.282 95.34L142.498 95.644L143.144 92.984L144.398 93.326L143.752 95.986L145.234 96.328L145.956 93.44L147.21 93.744L146.07 98.304Z" fill="white"/>
</g>
</g>
<defs>
<linearGradient id="paint0_linear_278_2527" x1="13.222" y1="109.374" x2="93.098" y2="29.498" gradientUnits="userSpaceOnUse">
<stop stop-color="#FF7A45"/>
<stop offset="1" stop-color="#0F3CA4"/>
</linearGradient>
<radialGradient id="paint1_radial_278_2527" cx="0" cy="0" r="1" gradientUnits="userSpaceOnUse" gradientTransform="translate(27.396 53.438) scale(21.964 21.964)">
<stop stop-color="#B3C7FF"/>
<stop offset="1" stop-color="white"/>
</radialGradient>
<radialGradient id="paint2_radial_278_2527" cx="0" cy="0" r="1" gradientUnits="userSpaceOnUse" gradientTransform="translate(126.044 45.952) scale(82.726 82.726)">
<stop stop-color="#B3C7FF"/>
<stop offset="1" stop-color="white"/>
</radialGradient>
<radialGradient id="paint3_radial_278_2527" cx="0" cy="0" r="1" gradientUnits="userSpaceOnUse" gradientTransform="translate(55.478 55.338) scale(7.41)">
<stop stop-color="white"/>
<stop offset="1" stop-color="#FFB699"/>
</radialGradient>
<linearGradient id="paint4_linear_278_2527" x1="49.36" y1="120.28" x2="148.16" y2="21.48" gradientUnits="userSpaceOnUse">
<stop stop-color="#0F3CA4"/>
<stop offset="1" stop-color="#FF7A45"/>
</linearGradient>
</defs>
</svg>
